<mxfile host="Electron" modified="2023-08-27T11:32:17.587Z" agent="Mozilla/5.0 (Windows NT 10.0; Win64; x64) AppleWebKit/537.36 (KHTML, like Gecko) draw.io/21.2.1 Chrome/112.0.5615.87 Electron/24.1.2 Safari/537.36" etag="F5sFzQbG4cHp5R591s4D" version="21.2.1" type="device" pages="3">
  <diagram id="C5RBs43oDa-KdzZeNtuy" name="Measure HSE clock">
    <mxGraphModel dx="864" dy="516" grid="1" gridSize="10" guides="1" tooltips="1" connect="1" arrows="1" fold="1" page="1" pageScale="1" pageWidth="827" pageHeight="1169" math="0" shadow="0">
      <root>
        <mxCell id="WIyWlLk6GJQsqaUBKTNV-0" />
        <mxCell id="WIyWlLk6GJQsqaUBKTNV-1" parent="WIyWlLk6GJQsqaUBKTNV-0" />
        <mxCell id="WIyWlLk6GJQsqaUBKTNV-2" value="" style="rounded=0;html=1;jettySize=auto;orthogonalLoop=1;fontSize=11;endArrow=block;endFill=0;endSize=8;strokeWidth=1;shadow=0;labelBackgroundColor=none;edgeStyle=orthogonalEdgeStyle;" parent="WIyWlLk6GJQsqaUBKTNV-1" edge="1">
          <mxGeometry relative="1" as="geometry">
            <mxPoint x="220" y="120" as="sourcePoint" />
            <mxPoint x="220" y="170" as="targetPoint" />
          </mxGeometry>
        </mxCell>
        <mxCell id="JFSZ-JANLh_UWQfAnqj6-0" value="Begin" style="ellipse;whiteSpace=wrap;html=1;" parent="WIyWlLk6GJQsqaUBKTNV-1" vertex="1">
          <mxGeometry x="160" y="70" width="120" height="50" as="geometry" />
        </mxCell>
        <mxCell id="JFSZ-JANLh_UWQfAnqj6-4" value="" style="edgeStyle=orthogonalEdgeStyle;rounded=0;orthogonalLoop=1;jettySize=auto;html=1;" parent="WIyWlLk6GJQsqaUBKTNV-1" source="JFSZ-JANLh_UWQfAnqj6-2" target="JFSZ-JANLh_UWQfAnqj6-3" edge="1">
          <mxGeometry relative="1" as="geometry" />
        </mxCell>
        <mxCell id="JFSZ-JANLh_UWQfAnqj6-2" value="Deffining two addresses of RCC_CR, RCC_CFGR and a basic address of GPIO A" style="rounded=1;whiteSpace=wrap;html=1;" parent="WIyWlLk6GJQsqaUBKTNV-1" vertex="1">
          <mxGeometry x="142.5" y="160" width="155" height="60" as="geometry" />
        </mxCell>
        <mxCell id="JFSZ-JANLh_UWQfAnqj6-6" value="" style="edgeStyle=orthogonalEdgeStyle;rounded=0;orthogonalLoop=1;jettySize=auto;html=1;" parent="WIyWlLk6GJQsqaUBKTNV-1" source="JFSZ-JANLh_UWQfAnqj6-3" target="JFSZ-JANLh_UWQfAnqj6-5" edge="1">
          <mxGeometry relative="1" as="geometry" />
        </mxCell>
        <mxCell id="JFSZ-JANLh_UWQfAnqj6-3" value="Declaring two points to point RCC_CR and CFGR" style="whiteSpace=wrap;html=1;rounded=1;" parent="WIyWlLk6GJQsqaUBKTNV-1" vertex="1">
          <mxGeometry x="140" y="250" width="160" height="60" as="geometry" />
        </mxCell>
        <mxCell id="JFSZ-JANLh_UWQfAnqj6-8" value="" style="edgeStyle=orthogonalEdgeStyle;rounded=0;orthogonalLoop=1;jettySize=auto;html=1;" parent="WIyWlLk6GJQsqaUBKTNV-1" source="JFSZ-JANLh_UWQfAnqj6-5" target="JFSZ-JANLh_UWQfAnqj6-7" edge="1">
          <mxGeometry relative="1" as="geometry" />
        </mxCell>
        <mxCell id="JFSZ-JANLh_UWQfAnqj6-5" value="To enable the HSEON bit of RCC-CR" style="whiteSpace=wrap;html=1;rounded=1;" parent="WIyWlLk6GJQsqaUBKTNV-1" vertex="1">
          <mxGeometry x="140" y="340" width="160" height="60" as="geometry" />
        </mxCell>
        <mxCell id="JFSZ-JANLh_UWQfAnqj6-10" value="" style="edgeStyle=orthogonalEdgeStyle;rounded=0;orthogonalLoop=1;jettySize=auto;html=1;" parent="WIyWlLk6GJQsqaUBKTNV-1" source="JFSZ-JANLh_UWQfAnqj6-7" target="JFSZ-JANLh_UWQfAnqj6-9" edge="1">
          <mxGeometry relative="1" as="geometry" />
        </mxCell>
        <mxCell id="JFSZ-JANLh_UWQfAnqj6-7" value="To wait for the HSERDY bit of RCC_CR is set up to 1" style="whiteSpace=wrap;html=1;rounded=1;" parent="WIyWlLk6GJQsqaUBKTNV-1" vertex="1">
          <mxGeometry x="140" y="430" width="160" height="60" as="geometry" />
        </mxCell>
        <mxCell id="JFSZ-JANLh_UWQfAnqj6-13" value="" style="edgeStyle=orthogonalEdgeStyle;rounded=0;orthogonalLoop=1;jettySize=auto;html=1;" parent="WIyWlLk6GJQsqaUBKTNV-1" source="JFSZ-JANLh_UWQfAnqj6-9" target="JFSZ-JANLh_UWQfAnqj6-12" edge="1">
          <mxGeometry relative="1" as="geometry" />
        </mxCell>
        <mxCell id="JFSZ-JANLh_UWQfAnqj6-9" value="To configure the&amp;nbsp; first two bits of RCC_CFGR to 01 to set up HSE clock as system clock" style="whiteSpace=wrap;html=1;rounded=1;" parent="WIyWlLk6GJQsqaUBKTNV-1" vertex="1">
          <mxGeometry x="135" y="520" width="170" height="60" as="geometry" />
        </mxCell>
        <mxCell id="JFSZ-JANLh_UWQfAnqj6-15" value="" style="edgeStyle=orthogonalEdgeStyle;rounded=0;orthogonalLoop=1;jettySize=auto;html=1;" parent="WIyWlLk6GJQsqaUBKTNV-1" source="JFSZ-JANLh_UWQfAnqj6-12" target="JFSZ-JANLh_UWQfAnqj6-14" edge="1">
          <mxGeometry relative="1" as="geometry" />
        </mxCell>
        <mxCell id="JFSZ-JANLh_UWQfAnqj6-12" value="To configure the two bits 21 and 22 of RCC_CFGR at MCO1 mode use HSE clock" style="whiteSpace=wrap;html=1;rounded=1;" parent="WIyWlLk6GJQsqaUBKTNV-1" vertex="1">
          <mxGeometry x="140" y="610" width="160" height="60" as="geometry" />
        </mxCell>
        <mxCell id="JFSZ-JANLh_UWQfAnqj6-17" value="" style="edgeStyle=orthogonalEdgeStyle;rounded=0;orthogonalLoop=1;jettySize=auto;html=1;" parent="WIyWlLk6GJQsqaUBKTNV-1" source="JFSZ-JANLh_UWQfAnqj6-14" target="JFSZ-JANLh_UWQfAnqj6-16" edge="1">
          <mxGeometry relative="1" as="geometry" />
        </mxCell>
        <mxCell id="JFSZ-JANLh_UWQfAnqj6-14" value="To configure three bits 24 to 26 of RCC_CFGR at division by 4 mode" style="whiteSpace=wrap;html=1;rounded=1;" parent="WIyWlLk6GJQsqaUBKTNV-1" vertex="1">
          <mxGeometry x="125" y="710" width="190" height="60" as="geometry" />
        </mxCell>
        <mxCell id="JFSZ-JANLh_UWQfAnqj6-19" value="" style="edgeStyle=orthogonalEdgeStyle;rounded=0;orthogonalLoop=1;jettySize=auto;html=1;" parent="WIyWlLk6GJQsqaUBKTNV-1" source="JFSZ-JANLh_UWQfAnqj6-16" target="JFSZ-JANLh_UWQfAnqj6-18" edge="1">
          <mxGeometry relative="1" as="geometry" />
        </mxCell>
        <mxCell id="JFSZ-JANLh_UWQfAnqj6-16" value="To enable clock pulse of GPIO A" style="whiteSpace=wrap;html=1;rounded=1;" parent="WIyWlLk6GJQsqaUBKTNV-1" vertex="1">
          <mxGeometry x="130" y="810" width="180" height="60" as="geometry" />
        </mxCell>
        <mxCell id="JFSZ-JANLh_UWQfAnqj6-21" value="" style="edgeStyle=orthogonalEdgeStyle;rounded=0;orthogonalLoop=1;jettySize=auto;html=1;" parent="WIyWlLk6GJQsqaUBKTNV-1" source="JFSZ-JANLh_UWQfAnqj6-18" target="JFSZ-JANLh_UWQfAnqj6-20" edge="1">
          <mxGeometry relative="1" as="geometry" />
        </mxCell>
        <mxCell id="JFSZ-JANLh_UWQfAnqj6-18" value="To configure the eighth bit of GPIOA at alternate mode" style="whiteSpace=wrap;html=1;rounded=1;" parent="WIyWlLk6GJQsqaUBKTNV-1" vertex="1">
          <mxGeometry x="120" y="900" width="200" height="60" as="geometry" />
        </mxCell>
        <mxCell id="JFSZ-JANLh_UWQfAnqj6-20" value="To cofigure the first bit of GPIOA_AFRH at AF0" style="whiteSpace=wrap;html=1;rounded=1;" parent="WIyWlLk6GJQsqaUBKTNV-1" vertex="1">
          <mxGeometry x="120" y="1000" width="200" height="60" as="geometry" />
        </mxCell>
        <mxCell id="JFSZ-JANLh_UWQfAnqj6-24" value="End" style="ellipse;whiteSpace=wrap;html=1;" parent="WIyWlLk6GJQsqaUBKTNV-1" vertex="1">
          <mxGeometry x="160" y="1080" width="120" height="40" as="geometry" />
        </mxCell>
        <mxCell id="JFSZ-JANLh_UWQfAnqj6-25" value="" style="endArrow=classic;html=1;rounded=0;exitX=0.5;exitY=1;exitDx=0;exitDy=0;entryX=0.5;entryY=0;entryDx=0;entryDy=0;" parent="WIyWlLk6GJQsqaUBKTNV-1" source="JFSZ-JANLh_UWQfAnqj6-20" target="JFSZ-JANLh_UWQfAnqj6-24" edge="1">
          <mxGeometry width="50" height="50" relative="1" as="geometry">
            <mxPoint x="390" y="1150" as="sourcePoint" />
            <mxPoint x="440" y="1100" as="targetPoint" />
          </mxGeometry>
        </mxCell>
      </root>
    </mxGraphModel>
  </diagram>
  <diagram id="4WSBlMuFXtodV1eZUSYk" name="I0T_303_Asm1">
    <mxGraphModel dx="2430" dy="887" grid="1" gridSize="10" guides="1" tooltips="1" connect="1" arrows="1" fold="1" page="1" pageScale="1" pageWidth="850" pageHeight="1100" math="0" shadow="0">
      <root>
        <mxCell id="0" />
        <mxCell id="1" parent="0" />
        <mxCell id="UX8jj4r0bpE6rmXrEpuS-5" value="" style="edgeStyle=orthogonalEdgeStyle;rounded=0;orthogonalLoop=1;jettySize=auto;html=1;" edge="1" parent="1" target="UX8jj4r0bpE6rmXrEpuS-4">
          <mxGeometry relative="1" as="geometry">
            <mxPoint x="380" y="50" as="sourcePoint" />
          </mxGeometry>
        </mxCell>
        <mxCell id="UX8jj4r0bpE6rmXrEpuS-1" value="Begin" style="ellipse;whiteSpace=wrap;html=1;" vertex="1" parent="1">
          <mxGeometry x="320" y="20" width="120" height="50" as="geometry" />
        </mxCell>
        <mxCell id="UX8jj4r0bpE6rmXrEpuS-9" value="" style="edgeStyle=orthogonalEdgeStyle;rounded=0;orthogonalLoop=1;jettySize=auto;html=1;" edge="1" parent="1" source="UX8jj4r0bpE6rmXrEpuS-4" target="UX8jj4r0bpE6rmXrEpuS-8">
          <mxGeometry relative="1" as="geometry" />
        </mxCell>
        <mxCell id="UX8jj4r0bpE6rmXrEpuS-4" value="GPIOx, GPIO_Pin, Status" style="rounded=1;whiteSpace=wrap;html=1;" vertex="1" parent="1">
          <mxGeometry x="320" y="110" width="120" height="40" as="geometry" />
        </mxCell>
        <mxCell id="UX8jj4r0bpE6rmXrEpuS-11" value="" style="edgeStyle=orthogonalEdgeStyle;rounded=0;orthogonalLoop=1;jettySize=auto;html=1;" edge="1" parent="1" source="UX8jj4r0bpE6rmXrEpuS-8" target="UX8jj4r0bpE6rmXrEpuS-10">
          <mxGeometry relative="1" as="geometry" />
        </mxCell>
        <mxCell id="UX8jj4r0bpE6rmXrEpuS-14" value="" style="edgeStyle=orthogonalEdgeStyle;rounded=0;orthogonalLoop=1;jettySize=auto;html=1;" edge="1" parent="1" source="UX8jj4r0bpE6rmXrEpuS-8" target="UX8jj4r0bpE6rmXrEpuS-13">
          <mxGeometry relative="1" as="geometry" />
        </mxCell>
        <mxCell id="UX8jj4r0bpE6rmXrEpuS-8" value="Status == 1" style="rhombus;whiteSpace=wrap;html=1;rounded=1;" vertex="1" parent="1">
          <mxGeometry x="340" y="180" width="80" height="50" as="geometry" />
        </mxCell>
        <mxCell id="UX8jj4r0bpE6rmXrEpuS-10" value="&lt;div style=&quot;&quot;&gt;&lt;span style=&quot;background-color: initial;&quot;&gt;Dịch 1 sang trái&amp;nbsp; n bit tương ứng với GPIO_Pin trong thanh ghi BSRRL&lt;/span&gt;&lt;/div&gt;" style="whiteSpace=wrap;html=1;rounded=1;align=center;" vertex="1" parent="1">
          <mxGeometry x="480" y="175" width="120" height="60" as="geometry" />
        </mxCell>
        <mxCell id="UX8jj4r0bpE6rmXrEpuS-12" value="Yes" style="text;html=1;strokeColor=none;fillColor=none;align=center;verticalAlign=middle;whiteSpace=wrap;rounded=0;" vertex="1" parent="1">
          <mxGeometry x="420" y="175" width="60" height="30" as="geometry" />
        </mxCell>
        <mxCell id="UX8jj4r0bpE6rmXrEpuS-13" value="&lt;div style=&quot;&quot;&gt;&lt;span style=&quot;background-color: initial;&quot;&gt;Dịch 1 sang trái n bit tương ứng với GPIO_Pin trong thanh ghi&amp;nbsp;BSRRH&lt;/span&gt;&lt;/div&gt;" style="rounded=1;whiteSpace=wrap;html=1;align=center;" vertex="1" parent="1">
          <mxGeometry x="320" y="280" width="120" height="60" as="geometry" />
        </mxCell>
        <mxCell id="UX8jj4r0bpE6rmXrEpuS-16" value="" style="endArrow=classic;html=1;rounded=0;" edge="1" parent="1">
          <mxGeometry width="50" height="50" relative="1" as="geometry">
            <mxPoint x="379.5" y="340" as="sourcePoint" />
            <mxPoint x="380" y="380" as="targetPoint" />
          </mxGeometry>
        </mxCell>
        <mxCell id="UX8jj4r0bpE6rmXrEpuS-17" value="" style="endArrow=classic;html=1;rounded=0;exitX=1;exitY=0.5;exitDx=0;exitDy=0;" edge="1" parent="1" source="UX8jj4r0bpE6rmXrEpuS-10">
          <mxGeometry width="50" height="50" relative="1" as="geometry">
            <mxPoint x="360" y="490" as="sourcePoint" />
            <mxPoint x="640" y="205" as="targetPoint" />
          </mxGeometry>
        </mxCell>
        <mxCell id="UX8jj4r0bpE6rmXrEpuS-20" value="" style="endArrow=classic;html=1;rounded=0;entryX=1;entryY=0.5;entryDx=0;entryDy=0;" edge="1" parent="1">
          <mxGeometry width="50" height="50" relative="1" as="geometry">
            <mxPoint x="640" y="410" as="sourcePoint" />
            <mxPoint x="440" y="410" as="targetPoint" />
          </mxGeometry>
        </mxCell>
        <mxCell id="UX8jj4r0bpE6rmXrEpuS-21" value="Finish" style="ellipse;whiteSpace=wrap;html=1;" vertex="1" parent="1">
          <mxGeometry x="320" y="380" width="120" height="50" as="geometry" />
        </mxCell>
        <mxCell id="UX8jj4r0bpE6rmXrEpuS-22" value="" style="endArrow=classic;html=1;rounded=0;" edge="1" parent="1">
          <mxGeometry width="50" height="50" relative="1" as="geometry">
            <mxPoint x="640" y="210" as="sourcePoint" />
            <mxPoint x="640" y="410" as="targetPoint" />
          </mxGeometry>
        </mxCell>
        <mxCell id="UX8jj4r0bpE6rmXrEpuS-23" value="" style="endArrow=classic;html=1;rounded=0;" edge="1" parent="1">
          <mxGeometry width="50" height="50" relative="1" as="geometry">
            <mxPoint x="640" y="210" as="sourcePoint" />
            <mxPoint x="640" y="410" as="targetPoint" />
          </mxGeometry>
        </mxCell>
        <mxCell id="UX8jj4r0bpE6rmXrEpuS-25" value="No" style="text;html=1;strokeColor=none;fillColor=none;align=center;verticalAlign=middle;whiteSpace=wrap;rounded=0;" vertex="1" parent="1">
          <mxGeometry x="380" y="235" width="40" height="30" as="geometry" />
        </mxCell>
        <mxCell id="z73j9xFbukWJb8UNmJvu-1" value="&lt;font style=&quot;font-size: 18px;&quot;&gt;&lt;b&gt;LedControl_SetState&lt;/b&gt;&lt;/font&gt;" style="text;html=1;strokeColor=none;fillColor=none;align=center;verticalAlign=middle;whiteSpace=wrap;rounded=0;" vertex="1" parent="1">
          <mxGeometry x="320" y="470" width="120" height="30" as="geometry" />
        </mxCell>
        <mxCell id="z73j9xFbukWJb8UNmJvu-5" value="" style="edgeStyle=orthogonalEdgeStyle;rounded=0;orthogonalLoop=1;jettySize=auto;html=1;" edge="1" parent="1" source="z73j9xFbukWJb8UNmJvu-3" target="z73j9xFbukWJb8UNmJvu-4">
          <mxGeometry relative="1" as="geometry" />
        </mxCell>
        <mxCell id="z73j9xFbukWJb8UNmJvu-3" value="Begin" style="ellipse;whiteSpace=wrap;html=1;" vertex="1" parent="1">
          <mxGeometry x="1100" y="20" width="120" height="50" as="geometry" />
        </mxCell>
        <mxCell id="z73j9xFbukWJb8UNmJvu-7" value="" style="edgeStyle=orthogonalEdgeStyle;rounded=0;orthogonalLoop=1;jettySize=auto;html=1;" edge="1" parent="1" source="z73j9xFbukWJb8UNmJvu-4" target="z73j9xFbukWJb8UNmJvu-6">
          <mxGeometry relative="1" as="geometry" />
        </mxCell>
        <mxCell id="z73j9xFbukWJb8UNmJvu-4" value="GPIOx, GPIO_Pin" style="rounded=1;whiteSpace=wrap;html=1;" vertex="1" parent="1">
          <mxGeometry x="1100" y="100" width="120" height="30" as="geometry" />
        </mxCell>
        <mxCell id="z73j9xFbukWJb8UNmJvu-9" value="" style="edgeStyle=orthogonalEdgeStyle;rounded=0;orthogonalLoop=1;jettySize=auto;html=1;" edge="1" parent="1" source="z73j9xFbukWJb8UNmJvu-6" target="z73j9xFbukWJb8UNmJvu-8">
          <mxGeometry relative="1" as="geometry" />
        </mxCell>
        <mxCell id="z73j9xFbukWJb8UNmJvu-6" value="Dịch thanh ghi GPIO_IDR sang phải n bit tương ứng với GPIO_Pin" style="rounded=1;whiteSpace=wrap;html=1;" vertex="1" parent="1">
          <mxGeometry x="1100" y="160" width="120" height="60" as="geometry" />
        </mxCell>
        <mxCell id="z73j9xFbukWJb8UNmJvu-11" value="" style="edgeStyle=orthogonalEdgeStyle;rounded=0;orthogonalLoop=1;jettySize=auto;html=1;" edge="1" parent="1" source="z73j9xFbukWJb8UNmJvu-8" target="z73j9xFbukWJb8UNmJvu-10">
          <mxGeometry relative="1" as="geometry" />
        </mxCell>
        <mxCell id="z73j9xFbukWJb8UNmJvu-8" value="Lấy giá trị bit đầu tiên sử dụng toán tử bit &amp;amp; kết hợp với 0X01" style="rounded=1;whiteSpace=wrap;html=1;" vertex="1" parent="1">
          <mxGeometry x="1100" y="235" width="120" height="60" as="geometry" />
        </mxCell>
        <mxCell id="z73j9xFbukWJb8UNmJvu-10" value="Trả lại giá trị bit đó cho hàm" style="shape=parallelogram;perimeter=parallelogramPerimeter;whiteSpace=wrap;html=1;fixedSize=1;rounded=1;" vertex="1" parent="1">
          <mxGeometry x="1100" y="320" width="120" height="60" as="geometry" />
        </mxCell>
        <mxCell id="z73j9xFbukWJb8UNmJvu-13" value="Finish" style="ellipse;whiteSpace=wrap;html=1;" vertex="1" parent="1">
          <mxGeometry x="1100" y="400" width="120" height="40" as="geometry" />
        </mxCell>
        <mxCell id="z73j9xFbukWJb8UNmJvu-14" value="" style="endArrow=classic;html=1;rounded=0;entryX=0.5;entryY=0;entryDx=0;entryDy=0;exitX=0.5;exitY=1;exitDx=0;exitDy=0;" edge="1" parent="1" source="z73j9xFbukWJb8UNmJvu-10" target="z73j9xFbukWJb8UNmJvu-13">
          <mxGeometry width="50" height="50" relative="1" as="geometry">
            <mxPoint x="930" y="240" as="sourcePoint" />
            <mxPoint x="980" y="190" as="targetPoint" />
          </mxGeometry>
        </mxCell>
        <mxCell id="z73j9xFbukWJb8UNmJvu-15" value="&lt;font style=&quot;font-size: 16px;&quot;&gt;&lt;b&gt;ButtonRead_Status&lt;/b&gt;&lt;/font&gt;" style="text;html=1;strokeColor=none;fillColor=none;align=center;verticalAlign=middle;whiteSpace=wrap;rounded=0;" vertex="1" parent="1">
          <mxGeometry x="1130" y="470" width="60" height="30" as="geometry" />
        </mxCell>
        <mxCell id="z73j9xFbukWJb8UNmJvu-23" value="" style="edgeStyle=orthogonalEdgeStyle;rounded=0;orthogonalLoop=1;jettySize=auto;html=1;" edge="1" parent="1" source="z73j9xFbukWJb8UNmJvu-17" target="z73j9xFbukWJb8UNmJvu-22">
          <mxGeometry relative="1" as="geometry" />
        </mxCell>
        <mxCell id="z73j9xFbukWJb8UNmJvu-17" value="Begin" style="ellipse;whiteSpace=wrap;html=1;" vertex="1" parent="1">
          <mxGeometry x="320" y="540" width="120" height="50" as="geometry" />
        </mxCell>
        <mxCell id="z73j9xFbukWJb8UNmJvu-21" value="" style="edgeStyle=orthogonalEdgeStyle;rounded=0;orthogonalLoop=1;jettySize=auto;html=1;" edge="1" parent="1" source="z73j9xFbukWJb8UNmJvu-18" target="z73j9xFbukWJb8UNmJvu-20">
          <mxGeometry relative="1" as="geometry" />
        </mxCell>
        <mxCell id="z73j9xFbukWJb8UNmJvu-25" value="" style="edgeStyle=orthogonalEdgeStyle;rounded=0;orthogonalLoop=1;jettySize=auto;html=1;" edge="1" parent="1" source="z73j9xFbukWJb8UNmJvu-18" target="z73j9xFbukWJb8UNmJvu-24">
          <mxGeometry relative="1" as="geometry" />
        </mxCell>
        <mxCell id="z73j9xFbukWJb8UNmJvu-18" value="PR4 of EXTI_PR == 1" style="rhombus;whiteSpace=wrap;html=1;" vertex="1" parent="1">
          <mxGeometry x="300" y="680" width="160" height="80" as="geometry" />
        </mxCell>
        <mxCell id="z73j9xFbukWJb8UNmJvu-20" value="countInterruptButton3++" style="rounded=1;whiteSpace=wrap;html=1;" vertex="1" parent="1">
          <mxGeometry x="550" y="705" width="150" height="30" as="geometry" />
        </mxCell>
        <mxCell id="z73j9xFbukWJb8UNmJvu-22" value="uint8_t countInterruptButton3" style="rounded=1;whiteSpace=wrap;html=1;" vertex="1" parent="1">
          <mxGeometry x="290" y="630" width="180" height="30" as="geometry" />
        </mxCell>
        <mxCell id="z73j9xFbukWJb8UNmJvu-24" value="PR4 of EXTI_PR = 0" style="rounded=1;whiteSpace=wrap;html=1;" vertex="1" parent="1">
          <mxGeometry x="320" y="800" width="120" height="60" as="geometry" />
        </mxCell>
        <mxCell id="z73j9xFbukWJb8UNmJvu-26" value="Yes" style="text;html=1;strokeColor=none;fillColor=none;align=center;verticalAlign=middle;whiteSpace=wrap;rounded=0;" vertex="1" parent="1">
          <mxGeometry x="470" y="690" width="60" height="30" as="geometry" />
        </mxCell>
        <mxCell id="z73j9xFbukWJb8UNmJvu-27" value="No" style="text;html=1;strokeColor=none;fillColor=none;align=center;verticalAlign=middle;whiteSpace=wrap;rounded=0;" vertex="1" parent="1">
          <mxGeometry x="380" y="760" width="60" height="30" as="geometry" />
        </mxCell>
        <mxCell id="z73j9xFbukWJb8UNmJvu-28" value="" style="endArrow=classic;html=1;rounded=0;exitX=0.5;exitY=1;exitDx=0;exitDy=0;" edge="1" parent="1" source="z73j9xFbukWJb8UNmJvu-22" target="z73j9xFbukWJb8UNmJvu-18">
          <mxGeometry width="50" height="50" relative="1" as="geometry">
            <mxPoint x="640" y="860" as="sourcePoint" />
            <mxPoint x="690" y="810" as="targetPoint" />
          </mxGeometry>
        </mxCell>
        <mxCell id="z73j9xFbukWJb8UNmJvu-29" value="" style="endArrow=classic;html=1;rounded=0;exitX=0.5;exitY=1;exitDx=0;exitDy=0;" edge="1" parent="1" source="z73j9xFbukWJb8UNmJvu-20">
          <mxGeometry width="50" height="50" relative="1" as="geometry">
            <mxPoint x="640" y="960" as="sourcePoint" />
            <mxPoint x="625" y="830" as="targetPoint" />
          </mxGeometry>
        </mxCell>
        <mxCell id="z73j9xFbukWJb8UNmJvu-30" value="" style="endArrow=classic;html=1;rounded=0;entryX=1;entryY=0.5;entryDx=0;entryDy=0;" edge="1" parent="1" target="z73j9xFbukWJb8UNmJvu-24">
          <mxGeometry width="50" height="50" relative="1" as="geometry">
            <mxPoint x="620" y="830" as="sourcePoint" />
            <mxPoint x="690" y="910" as="targetPoint" />
          </mxGeometry>
        </mxCell>
        <mxCell id="z73j9xFbukWJb8UNmJvu-32" value="Finish" style="ellipse;whiteSpace=wrap;html=1;" vertex="1" parent="1">
          <mxGeometry x="320" y="900" width="120" height="50" as="geometry" />
        </mxCell>
        <mxCell id="z73j9xFbukWJb8UNmJvu-33" style="edgeStyle=orthogonalEdgeStyle;rounded=0;orthogonalLoop=1;jettySize=auto;html=1;exitX=0.5;exitY=1;exitDx=0;exitDy=0;" edge="1" parent="1" source="z73j9xFbukWJb8UNmJvu-22" target="z73j9xFbukWJb8UNmJvu-22">
          <mxGeometry relative="1" as="geometry" />
        </mxCell>
        <mxCell id="z73j9xFbukWJb8UNmJvu-35" value="" style="endArrow=classic;html=1;rounded=0;exitX=0.5;exitY=1;exitDx=0;exitDy=0;entryX=0.5;entryY=0;entryDx=0;entryDy=0;" edge="1" parent="1" source="z73j9xFbukWJb8UNmJvu-24" target="z73j9xFbukWJb8UNmJvu-32">
          <mxGeometry width="50" height="50" relative="1" as="geometry">
            <mxPoint x="640" y="760" as="sourcePoint" />
            <mxPoint x="690" y="710" as="targetPoint" />
          </mxGeometry>
        </mxCell>
        <mxCell id="z73j9xFbukWJb8UNmJvu-36" value="&lt;b&gt;&lt;font style=&quot;font-size: 16px;&quot;&gt;EXTI4_IRQHandler&lt;/font&gt;&lt;/b&gt;" style="text;html=1;strokeColor=none;fillColor=none;align=center;verticalAlign=middle;whiteSpace=wrap;rounded=0;" vertex="1" parent="1">
          <mxGeometry x="320" y="960" width="120" height="30" as="geometry" />
        </mxCell>
        <mxCell id="z73j9xFbukWJb8UNmJvu-37" value="Begin" style="ellipse;whiteSpace=wrap;html=1;" vertex="1" parent="1">
          <mxGeometry x="1040" y="540" width="120" height="50" as="geometry" />
        </mxCell>
        <mxCell id="z73j9xFbukWJb8UNmJvu-45" value="" style="edgeStyle=orthogonalEdgeStyle;rounded=0;orthogonalLoop=1;jettySize=auto;html=1;" edge="1" parent="1" source="z73j9xFbukWJb8UNmJvu-38" target="z73j9xFbukWJb8UNmJvu-44">
          <mxGeometry relative="1" as="geometry" />
        </mxCell>
        <mxCell id="z73j9xFbukWJb8UNmJvu-38" value="countInterruptButton3&amp;nbsp; == 5" style="rhombus;whiteSpace=wrap;html=1;" vertex="1" parent="1">
          <mxGeometry x="1005" y="660" width="190" height="75" as="geometry" />
        </mxCell>
        <mxCell id="z73j9xFbukWJb8UNmJvu-50" value="" style="edgeStyle=orthogonalEdgeStyle;rounded=0;orthogonalLoop=1;jettySize=auto;html=1;" edge="1" parent="1" source="z73j9xFbukWJb8UNmJvu-44" target="z73j9xFbukWJb8UNmJvu-49">
          <mxGeometry relative="1" as="geometry" />
        </mxCell>
        <mxCell id="z73j9xFbukWJb8UNmJvu-48" value="uint8_t i = 0" style="rounded=1;whiteSpace=wrap;html=1;" vertex="1" parent="1">
          <mxGeometry x="1050" y="620" width="100" height="20" as="geometry" />
        </mxCell>
        <mxCell id="z73j9xFbukWJb8UNmJvu-52" value="" style="edgeStyle=orthogonalEdgeStyle;rounded=0;orthogonalLoop=1;jettySize=auto;html=1;" edge="1" parent="1" source="z73j9xFbukWJb8UNmJvu-49" target="z73j9xFbukWJb8UNmJvu-51">
          <mxGeometry relative="1" as="geometry" />
        </mxCell>
        <mxCell id="z73j9xFbukWJb8UNmJvu-49" value="Điều khiển nháy LED" style="rounded=1;whiteSpace=wrap;html=1;" vertex="1" parent="1">
          <mxGeometry x="1040" y="840" width="120" height="40" as="geometry" />
        </mxCell>
        <mxCell id="z73j9xFbukWJb8UNmJvu-51" value="i++" style="rounded=1;whiteSpace=wrap;html=1;" vertex="1" parent="1">
          <mxGeometry x="1200" y="850" width="65" height="20" as="geometry" />
        </mxCell>
        <mxCell id="z73j9xFbukWJb8UNmJvu-54" value="" style="endArrow=classic;html=1;rounded=0;" edge="1" parent="1" source="z73j9xFbukWJb8UNmJvu-44">
          <mxGeometry width="50" height="50" relative="1" as="geometry">
            <mxPoint x="1300" y="800" as="sourcePoint" />
            <mxPoint x="1100" y="800" as="targetPoint" />
          </mxGeometry>
        </mxCell>
        <mxCell id="z73j9xFbukWJb8UNmJvu-59" value="" style="edgeStyle=orthogonalEdgeStyle;rounded=0;orthogonalLoop=1;jettySize=auto;html=1;" edge="1" parent="1" source="z73j9xFbukWJb8UNmJvu-57" target="z73j9xFbukWJb8UNmJvu-58">
          <mxGeometry relative="1" as="geometry" />
        </mxCell>
        <mxCell id="z73j9xFbukWJb8UNmJvu-57" value="Điều khiển BUZZER" style="rounded=1;whiteSpace=wrap;html=1;" vertex="1" parent="1">
          <mxGeometry x="940" y="900" width="120" height="20" as="geometry" />
        </mxCell>
        <mxCell id="z73j9xFbukWJb8UNmJvu-58" value="countInterruptButton3" style="whiteSpace=wrap;html=1;rounded=1;" vertex="1" parent="1">
          <mxGeometry x="930" y="960" width="140" height="30" as="geometry" />
        </mxCell>
        <mxCell id="z73j9xFbukWJb8UNmJvu-60" value="Finish" style="ellipse;whiteSpace=wrap;html=1;" vertex="1" parent="1">
          <mxGeometry x="1100" y="955" width="120" height="40" as="geometry" />
        </mxCell>
        <mxCell id="z73j9xFbukWJb8UNmJvu-61" value="" style="endArrow=classic;html=1;rounded=0;exitX=1;exitY=0.5;exitDx=0;exitDy=0;entryX=0;entryY=0.5;entryDx=0;entryDy=0;" edge="1" parent="1" source="z73j9xFbukWJb8UNmJvu-58" target="z73j9xFbukWJb8UNmJvu-60">
          <mxGeometry width="50" height="50" relative="1" as="geometry">
            <mxPoint x="1000" y="1180" as="sourcePoint" />
            <mxPoint x="1150" y="1010" as="targetPoint" />
          </mxGeometry>
        </mxCell>
        <mxCell id="z73j9xFbukWJb8UNmJvu-64" value="" style="endArrow=classic;html=1;rounded=0;entryX=1;entryY=0.5;entryDx=0;entryDy=0;" edge="1" parent="1" target="z73j9xFbukWJb8UNmJvu-60">
          <mxGeometry width="50" height="50" relative="1" as="geometry">
            <mxPoint x="1280" y="975" as="sourcePoint" />
            <mxPoint x="1150" y="1010" as="targetPoint" />
          </mxGeometry>
        </mxCell>
        <mxCell id="z73j9xFbukWJb8UNmJvu-65" value="" style="endArrow=classic;html=1;rounded=0;exitX=0.5;exitY=1;exitDx=0;exitDy=0;entryX=0.5;entryY=0;entryDx=0;entryDy=0;" edge="1" parent="1" source="z73j9xFbukWJb8UNmJvu-37" target="z73j9xFbukWJb8UNmJvu-48">
          <mxGeometry width="50" height="50" relative="1" as="geometry">
            <mxPoint x="1100" y="760" as="sourcePoint" />
            <mxPoint x="1240" y="590" as="targetPoint" />
          </mxGeometry>
        </mxCell>
        <mxCell id="z73j9xFbukWJb8UNmJvu-66" value="" style="endArrow=classic;html=1;rounded=0;" edge="1" parent="1" target="z73j9xFbukWJb8UNmJvu-44">
          <mxGeometry width="50" height="50" relative="1" as="geometry">
            <mxPoint x="1230" y="785" as="sourcePoint" />
            <mxPoint x="1100" y="800" as="targetPoint" />
          </mxGeometry>
        </mxCell>
        <mxCell id="z73j9xFbukWJb8UNmJvu-89" value="" style="edgeStyle=orthogonalEdgeStyle;rounded=0;orthogonalLoop=1;jettySize=auto;html=1;" edge="1" parent="1" source="z73j9xFbukWJb8UNmJvu-44">
          <mxGeometry relative="1" as="geometry">
            <mxPoint x="1000" y="785" as="targetPoint" />
            <Array as="points">
              <mxPoint x="1000" y="785" />
              <mxPoint x="1000" y="785" />
            </Array>
          </mxGeometry>
        </mxCell>
        <mxCell id="z73j9xFbukWJb8UNmJvu-44" value="i &amp;lt;= 4" style="rhombus;whiteSpace=wrap;html=1;" vertex="1" parent="1">
          <mxGeometry x="1060" y="760" width="80" height="50" as="geometry" />
        </mxCell>
        <mxCell id="z73j9xFbukWJb8UNmJvu-67" value="" style="endArrow=classic;html=1;rounded=0;exitX=0.5;exitY=1;exitDx=0;exitDy=0;entryX=0.5;entryY=0;entryDx=0;entryDy=0;" edge="1" parent="1" source="z73j9xFbukWJb8UNmJvu-48" target="z73j9xFbukWJb8UNmJvu-38">
          <mxGeometry width="50" height="50" relative="1" as="geometry">
            <mxPoint x="1100" y="760" as="sourcePoint" />
            <mxPoint x="1150" y="710" as="targetPoint" />
          </mxGeometry>
        </mxCell>
        <mxCell id="z73j9xFbukWJb8UNmJvu-68" style="edgeStyle=orthogonalEdgeStyle;rounded=0;orthogonalLoop=1;jettySize=auto;html=1;exitX=0.5;exitY=1;exitDx=0;exitDy=0;" edge="1" parent="1" source="z73j9xFbukWJb8UNmJvu-49" target="z73j9xFbukWJb8UNmJvu-49">
          <mxGeometry relative="1" as="geometry" />
        </mxCell>
        <mxCell id="z73j9xFbukWJb8UNmJvu-70" value="" style="endArrow=classic;html=1;rounded=0;exitX=0.5;exitY=0;exitDx=0;exitDy=0;" edge="1" parent="1" source="z73j9xFbukWJb8UNmJvu-51">
          <mxGeometry width="50" height="50" relative="1" as="geometry">
            <mxPoint x="1195" y="840" as="sourcePoint" />
            <mxPoint x="1233" y="780" as="targetPoint" />
          </mxGeometry>
        </mxCell>
        <mxCell id="z73j9xFbukWJb8UNmJvu-75" value="" style="endArrow=classic;html=1;rounded=0;exitX=1;exitY=0.5;exitDx=0;exitDy=0;" edge="1" parent="1" source="z73j9xFbukWJb8UNmJvu-38">
          <mxGeometry width="50" height="50" relative="1" as="geometry">
            <mxPoint x="1210" y="760" as="sourcePoint" />
            <mxPoint x="1280" y="698" as="targetPoint" />
          </mxGeometry>
        </mxCell>
        <mxCell id="z73j9xFbukWJb8UNmJvu-76" value="" style="endArrow=classic;html=1;rounded=0;" edge="1" parent="1">
          <mxGeometry width="50" height="50" relative="1" as="geometry">
            <mxPoint x="1280" y="700" as="sourcePoint" />
            <mxPoint x="1280" y="970" as="targetPoint" />
          </mxGeometry>
        </mxCell>
        <mxCell id="z73j9xFbukWJb8UNmJvu-78" value="" style="endArrow=classic;html=1;rounded=0;entryX=0.5;entryY=0;entryDx=0;entryDy=0;" edge="1" parent="1" target="z73j9xFbukWJb8UNmJvu-57">
          <mxGeometry width="50" height="50" relative="1" as="geometry">
            <mxPoint x="1000" y="790" as="sourcePoint" />
            <mxPoint x="1080" y="840" as="targetPoint" />
          </mxGeometry>
        </mxCell>
        <mxCell id="z73j9xFbukWJb8UNmJvu-91" value="Yes" style="text;html=1;strokeColor=none;fillColor=none;align=center;verticalAlign=middle;whiteSpace=wrap;rounded=0;" vertex="1" parent="1">
          <mxGeometry x="1100" y="730" width="60" height="30" as="geometry" />
        </mxCell>
        <mxCell id="z73j9xFbukWJb8UNmJvu-92" value="No" style="text;html=1;strokeColor=none;fillColor=none;align=center;verticalAlign=middle;whiteSpace=wrap;rounded=0;" vertex="1" parent="1">
          <mxGeometry x="1200" y="670" width="60" height="30" as="geometry" />
        </mxCell>
        <mxCell id="z73j9xFbukWJb8UNmJvu-93" value="Yes" style="text;html=1;strokeColor=none;fillColor=none;align=center;verticalAlign=middle;whiteSpace=wrap;rounded=0;" vertex="1" parent="1">
          <mxGeometry x="1100" y="810" width="60" height="30" as="geometry" />
        </mxCell>
        <mxCell id="z73j9xFbukWJb8UNmJvu-94" value="No" style="text;html=1;strokeColor=none;fillColor=none;align=center;verticalAlign=middle;whiteSpace=wrap;rounded=0;" vertex="1" parent="1">
          <mxGeometry x="1000" y="750" width="60" height="30" as="geometry" />
        </mxCell>
        <mxCell id="z73j9xFbukWJb8UNmJvu-95" value="&lt;b&gt;&lt;font style=&quot;font-size: 16px;&quot;&gt;Blink GREEN_LED 5 times&lt;/font&gt;&lt;/b&gt;" style="text;html=1;strokeColor=none;fillColor=none;align=center;verticalAlign=middle;whiteSpace=wrap;rounded=0;" vertex="1" parent="1">
          <mxGeometry x="940" y="1020" width="330" height="30" as="geometry" />
        </mxCell>
        <mxCell id="z73j9xFbukWJb8UNmJvu-98" value="" style="edgeStyle=orthogonalEdgeStyle;rounded=0;orthogonalLoop=1;jettySize=auto;html=1;" edge="1" parent="1" source="z73j9xFbukWJb8UNmJvu-96" target="z73j9xFbukWJb8UNmJvu-97">
          <mxGeometry relative="1" as="geometry" />
        </mxCell>
        <mxCell id="z73j9xFbukWJb8UNmJvu-96" value="Begin" style="ellipse;whiteSpace=wrap;html=1;" vertex="1" parent="1">
          <mxGeometry x="320" y="1070" width="120" height="50" as="geometry" />
        </mxCell>
        <mxCell id="z73j9xFbukWJb8UNmJvu-102" value="" style="edgeStyle=orthogonalEdgeStyle;rounded=0;orthogonalLoop=1;jettySize=auto;html=1;" edge="1" parent="1" source="z73j9xFbukWJb8UNmJvu-97" target="z73j9xFbukWJb8UNmJvu-101">
          <mxGeometry relative="1" as="geometry" />
        </mxCell>
        <mxCell id="z73j9xFbukWJb8UNmJvu-97" value="uint32_t time_initial_hold, time_release&amp;nbsp;&lt;br&gt;uint8_t statusButton2, statusCommon&lt;br&gt;uint8_t countPressButton" style="rounded=1;whiteSpace=wrap;html=1;" vertex="1" parent="1">
          <mxGeometry x="270" y="1150" width="220" height="60" as="geometry" />
        </mxCell>
        <mxCell id="z73j9xFbukWJb8UNmJvu-104" value="" style="edgeStyle=orthogonalEdgeStyle;rounded=0;orthogonalLoop=1;jettySize=auto;html=1;" edge="1" parent="1" source="z73j9xFbukWJb8UNmJvu-101" target="z73j9xFbukWJb8UNmJvu-103">
          <mxGeometry relative="1" as="geometry" />
        </mxCell>
        <mxCell id="z73j9xFbukWJb8UNmJvu-119" value="" style="edgeStyle=orthogonalEdgeStyle;rounded=0;orthogonalLoop=1;jettySize=auto;html=1;" edge="1" parent="1" source="z73j9xFbukWJb8UNmJvu-101">
          <mxGeometry relative="1" as="geometry">
            <mxPoint x="520" y="1265" as="targetPoint" />
          </mxGeometry>
        </mxCell>
        <mxCell id="z73j9xFbukWJb8UNmJvu-101" value="PR3 of EXTI_PR == 1" style="rhombus;whiteSpace=wrap;html=1;rounded=1;" vertex="1" parent="1">
          <mxGeometry x="280" y="1240" width="200" height="50" as="geometry" />
        </mxCell>
        <mxCell id="z73j9xFbukWJb8UNmJvu-106" value="" style="edgeStyle=orthogonalEdgeStyle;rounded=0;orthogonalLoop=1;jettySize=auto;html=1;" edge="1" parent="1" source="z73j9xFbukWJb8UNmJvu-103" target="z73j9xFbukWJb8UNmJvu-105">
          <mxGeometry relative="1" as="geometry" />
        </mxCell>
        <mxCell id="z73j9xFbukWJb8UNmJvu-108" value="" style="edgeStyle=orthogonalEdgeStyle;rounded=0;orthogonalLoop=1;jettySize=auto;html=1;" edge="1" parent="1" source="z73j9xFbukWJb8UNmJvu-103">
          <mxGeometry relative="1" as="geometry">
            <mxPoint x="240.0000000000001" y="1345" as="targetPoint" />
          </mxGeometry>
        </mxCell>
        <mxCell id="z73j9xFbukWJb8UNmJvu-103" value="State of BT2 = 0" style="rhombus;whiteSpace=wrap;html=1;rounded=1;" vertex="1" parent="1">
          <mxGeometry x="320" y="1320" width="120" height="50" as="geometry" />
        </mxCell>
        <mxCell id="z73j9xFbukWJb8UNmJvu-105" value="statusButton2 = 1;&#xa;			statusCommon = 1;&#xa;			time_initial_hold = GetMilSecTick();&#xa;			countPressButton++;" style="rounded=1;whiteSpace=wrap;html=1;" vertex="1" parent="1">
          <mxGeometry x="280" y="1400" width="200" height="70" as="geometry" />
        </mxCell>
        <mxCell id="z73j9xFbukWJb8UNmJvu-109" value="" style="endArrow=classic;html=1;rounded=0;" edge="1" parent="1">
          <mxGeometry width="50" height="50" relative="1" as="geometry">
            <mxPoint x="240" y="1350" as="sourcePoint" />
            <mxPoint x="240" y="1500" as="targetPoint" />
          </mxGeometry>
        </mxCell>
        <mxCell id="z73j9xFbukWJb8UNmJvu-123" value="" style="edgeStyle=orthogonalEdgeStyle;rounded=0;orthogonalLoop=1;jettySize=auto;html=1;" edge="1" parent="1" source="z73j9xFbukWJb8UNmJvu-110" target="z73j9xFbukWJb8UNmJvu-122">
          <mxGeometry relative="1" as="geometry">
            <Array as="points">
              <mxPoint x="240" y="1560" />
              <mxPoint x="240" y="1560" />
            </Array>
          </mxGeometry>
        </mxCell>
        <mxCell id="z73j9xFbukWJb8UNmJvu-110" value="&lt;div&gt;			statusCommon = 0;&lt;/div&gt;&lt;div&gt;&lt;span style=&quot;&quot;&gt;			&lt;/span&gt;time_release = GetMilSecTick();&lt;/div&gt;" style="rounded=1;whiteSpace=wrap;html=1;" vertex="1" parent="1">
          <mxGeometry x="150" y="1500" width="190" height="40" as="geometry" />
        </mxCell>
        <mxCell id="z73j9xFbukWJb8UNmJvu-111" value="Yes" style="text;html=1;strokeColor=none;fillColor=none;align=center;verticalAlign=middle;whiteSpace=wrap;rounded=0;" vertex="1" parent="1">
          <mxGeometry x="380" y="1370" width="60" height="30" as="geometry" />
        </mxCell>
        <mxCell id="z73j9xFbukWJb8UNmJvu-112" value="No" style="text;html=1;strokeColor=none;fillColor=none;align=center;verticalAlign=middle;whiteSpace=wrap;rounded=0;" vertex="1" parent="1">
          <mxGeometry x="260" y="1320" width="60" height="30" as="geometry" />
        </mxCell>
        <mxCell id="z73j9xFbukWJb8UNmJvu-115" value="Finish" style="ellipse;whiteSpace=wrap;html=1;" vertex="1" parent="1">
          <mxGeometry x="460" y="1570" width="120" height="30" as="geometry" />
        </mxCell>
        <mxCell id="z73j9xFbukWJb8UNmJvu-117" value="Yes" style="text;html=1;strokeColor=none;fillColor=none;align=center;verticalAlign=middle;whiteSpace=wrap;rounded=0;" vertex="1" parent="1">
          <mxGeometry x="380" y="1290" width="60" height="30" as="geometry" />
        </mxCell>
        <mxCell id="z73j9xFbukWJb8UNmJvu-120" value="" style="endArrow=classic;html=1;rounded=0;" edge="1" parent="1">
          <mxGeometry width="50" height="50" relative="1" as="geometry">
            <mxPoint x="520" y="1270" as="sourcePoint" />
            <mxPoint x="519.71" y="1570" as="targetPoint" />
          </mxGeometry>
        </mxCell>
        <mxCell id="z73j9xFbukWJb8UNmJvu-122" value="PR3 of EXTI_PR == 1" style="whiteSpace=wrap;html=1;rounded=1;" vertex="1" parent="1">
          <mxGeometry x="180" y="1570" width="120" height="30" as="geometry" />
        </mxCell>
        <mxCell id="z73j9xFbukWJb8UNmJvu-125" value="" style="endArrow=classic;html=1;rounded=0;exitX=1;exitY=0.5;exitDx=0;exitDy=0;entryX=0;entryY=0.5;entryDx=0;entryDy=0;" edge="1" parent="1" source="z73j9xFbukWJb8UNmJvu-122" target="z73j9xFbukWJb8UNmJvu-115">
          <mxGeometry width="50" height="50" relative="1" as="geometry">
            <mxPoint x="350" y="1570" as="sourcePoint" />
            <mxPoint x="400" y="1520" as="targetPoint" />
          </mxGeometry>
        </mxCell>
        <mxCell id="z73j9xFbukWJb8UNmJvu-126" value="&lt;b&gt;&lt;font style=&quot;font-size: 16px;&quot;&gt;EXTI3_IRQHandler&lt;/font&gt;&lt;/b&gt;" style="text;html=1;strokeColor=none;fillColor=none;align=center;verticalAlign=middle;whiteSpace=wrap;rounded=0;" vertex="1" parent="1">
          <mxGeometry x="292" y="1638" width="168" height="25" as="geometry" />
        </mxCell>
        <mxCell id="z73j9xFbukWJb8UNmJvu-129" value="" style="edgeStyle=orthogonalEdgeStyle;rounded=0;orthogonalLoop=1;jettySize=auto;html=1;" edge="1" parent="1" source="z73j9xFbukWJb8UNmJvu-127" target="z73j9xFbukWJb8UNmJvu-128">
          <mxGeometry relative="1" as="geometry" />
        </mxCell>
        <mxCell id="z73j9xFbukWJb8UNmJvu-127" value="Begin" style="ellipse;whiteSpace=wrap;html=1;" vertex="1" parent="1">
          <mxGeometry x="1110" y="1130" width="120" height="50" as="geometry" />
        </mxCell>
        <mxCell id="z73j9xFbukWJb8UNmJvu-131" value="" style="edgeStyle=orthogonalEdgeStyle;rounded=0;orthogonalLoop=1;jettySize=auto;html=1;" edge="1" parent="1" source="z73j9xFbukWJb8UNmJvu-128" target="z73j9xFbukWJb8UNmJvu-130">
          <mxGeometry relative="1" as="geometry" />
        </mxCell>
        <mxCell id="z73j9xFbukWJb8UNmJvu-128" value="uint32_t time_current_hold" style="rounded=1;whiteSpace=wrap;html=1;" vertex="1" parent="1">
          <mxGeometry x="1090" y="1210" width="160" height="30" as="geometry" />
        </mxCell>
        <mxCell id="z73j9xFbukWJb8UNmJvu-133" value="" style="edgeStyle=orthogonalEdgeStyle;rounded=0;orthogonalLoop=1;jettySize=auto;html=1;" edge="1" parent="1" source="z73j9xFbukWJb8UNmJvu-130" target="z73j9xFbukWJb8UNmJvu-132">
          <mxGeometry relative="1" as="geometry" />
        </mxCell>
        <mxCell id="z73j9xFbukWJb8UNmJvu-142" value="" style="edgeStyle=orthogonalEdgeStyle;rounded=0;orthogonalLoop=1;jettySize=auto;html=1;" edge="1" parent="1" source="z73j9xFbukWJb8UNmJvu-130">
          <mxGeometry relative="1" as="geometry">
            <mxPoint x="1400" y="1293" as="targetPoint" />
          </mxGeometry>
        </mxCell>
        <mxCell id="z73j9xFbukWJb8UNmJvu-130" value="statusButton2 == 1 || statusButton4 == 1" style="rhombus;whiteSpace=wrap;html=1;rounded=1;" vertex="1" parent="1">
          <mxGeometry x="1010" y="1270" width="320" height="45" as="geometry" />
        </mxCell>
        <mxCell id="z73j9xFbukWJb8UNmJvu-135" value="" style="edgeStyle=orthogonalEdgeStyle;rounded=0;orthogonalLoop=1;jettySize=auto;html=1;" edge="1" parent="1" source="z73j9xFbukWJb8UNmJvu-132" target="z73j9xFbukWJb8UNmJvu-134">
          <mxGeometry relative="1" as="geometry" />
        </mxCell>
        <mxCell id="z73j9xFbukWJb8UNmJvu-132" value="CalculatorTime(time_initial_hold, time_current_hold) &amp;gt; 500" style="rhombus;whiteSpace=wrap;html=1;rounded=1;" vertex="1" parent="1">
          <mxGeometry x="960" y="1340" width="420" height="60" as="geometry" />
        </mxCell>
        <mxCell id="z73j9xFbukWJb8UNmJvu-137" value="" style="edgeStyle=orthogonalEdgeStyle;rounded=0;orthogonalLoop=1;jettySize=auto;html=1;" edge="1" parent="1" source="z73j9xFbukWJb8UNmJvu-134">
          <mxGeometry relative="1" as="geometry">
            <mxPoint x="1170" y="1530" as="targetPoint" />
          </mxGeometry>
        </mxCell>
        <mxCell id="z73j9xFbukWJb8UNmJvu-134" value="Điều khiển LED tương ứng sáng" style="rounded=1;whiteSpace=wrap;html=1;" vertex="1" parent="1">
          <mxGeometry x="1110" y="1430" width="120" height="40" as="geometry" />
        </mxCell>
        <mxCell id="z73j9xFbukWJb8UNmJvu-138" value="Finish" style="ellipse;whiteSpace=wrap;html=1;" vertex="1" parent="1">
          <mxGeometry x="1110" y="1500" width="120" height="40" as="geometry" />
        </mxCell>
        <mxCell id="z73j9xFbukWJb8UNmJvu-139" value="Yes" style="text;html=1;strokeColor=none;fillColor=none;align=center;verticalAlign=middle;whiteSpace=wrap;rounded=0;" vertex="1" parent="1">
          <mxGeometry x="1170" y="1310" width="60" height="30" as="geometry" />
        </mxCell>
        <mxCell id="z73j9xFbukWJb8UNmJvu-140" value="Yes" style="text;html=1;strokeColor=none;fillColor=none;align=center;verticalAlign=middle;whiteSpace=wrap;rounded=0;" vertex="1" parent="1">
          <mxGeometry x="1170" y="1400" width="60" height="30" as="geometry" />
        </mxCell>
        <mxCell id="z73j9xFbukWJb8UNmJvu-143" value="" style="endArrow=classic;html=1;rounded=0;" edge="1" parent="1">
          <mxGeometry width="50" height="50" relative="1" as="geometry">
            <mxPoint x="1400" y="1300" as="sourcePoint" />
            <mxPoint x="1400" y="1520" as="targetPoint" />
          </mxGeometry>
        </mxCell>
        <mxCell id="z73j9xFbukWJb8UNmJvu-144" value="" style="endArrow=classic;html=1;rounded=0;entryX=1;entryY=0.5;entryDx=0;entryDy=0;" edge="1" parent="1" target="z73j9xFbukWJb8UNmJvu-138">
          <mxGeometry width="50" height="50" relative="1" as="geometry">
            <mxPoint x="1400" y="1520" as="sourcePoint" />
            <mxPoint x="1260" y="1310" as="targetPoint" />
          </mxGeometry>
        </mxCell>
        <mxCell id="z73j9xFbukWJb8UNmJvu-145" value="No" style="text;html=1;strokeColor=none;fillColor=none;align=center;verticalAlign=middle;whiteSpace=wrap;rounded=0;" vertex="1" parent="1">
          <mxGeometry x="1330" y="1260" width="60" height="30" as="geometry" />
        </mxCell>
        <mxCell id="z73j9xFbukWJb8UNmJvu-146" value="" style="endArrow=classic;html=1;rounded=0;exitX=1;exitY=0.5;exitDx=0;exitDy=0;" edge="1" parent="1" source="z73j9xFbukWJb8UNmJvu-132">
          <mxGeometry width="50" height="50" relative="1" as="geometry">
            <mxPoint x="1210" y="1440" as="sourcePoint" />
            <mxPoint x="1400" y="1370" as="targetPoint" />
          </mxGeometry>
        </mxCell>
        <mxCell id="z73j9xFbukWJb8UNmJvu-147" value="No" style="text;html=1;strokeColor=none;fillColor=none;align=center;verticalAlign=middle;whiteSpace=wrap;rounded=0;" vertex="1" parent="1">
          <mxGeometry x="1350" y="1350" width="60" height="20" as="geometry" />
        </mxCell>
        <mxCell id="z73j9xFbukWJb8UNmJvu-148" value="&lt;b&gt;&lt;font style=&quot;font-size: 16px;&quot;&gt;Control LED when holding and switch off BUTTON&lt;/font&gt;&lt;/b&gt;" style="text;html=1;strokeColor=none;fillColor=none;align=center;verticalAlign=middle;whiteSpace=wrap;rounded=0;" vertex="1" parent="1">
          <mxGeometry x="965" y="1580" width="410" height="30" as="geometry" />
        </mxCell>
        <mxCell id="z73j9xFbukWJb8UNmJvu-151" value="" style="edgeStyle=orthogonalEdgeStyle;rounded=0;orthogonalLoop=1;jettySize=auto;html=1;" edge="1" parent="1" source="z73j9xFbukWJb8UNmJvu-149" target="z73j9xFbukWJb8UNmJvu-150">
          <mxGeometry relative="1" as="geometry" />
        </mxCell>
        <mxCell id="z73j9xFbukWJb8UNmJvu-149" value="Begin" style="ellipse;whiteSpace=wrap;html=1;" vertex="1" parent="1">
          <mxGeometry x="316" y="1750" width="120" height="40" as="geometry" />
        </mxCell>
        <mxCell id="z73j9xFbukWJb8UNmJvu-153" value="" style="edgeStyle=orthogonalEdgeStyle;rounded=0;orthogonalLoop=1;jettySize=auto;html=1;" edge="1" parent="1" source="z73j9xFbukWJb8UNmJvu-150" target="z73j9xFbukWJb8UNmJvu-152">
          <mxGeometry relative="1" as="geometry" />
        </mxCell>
        <mxCell id="z73j9xFbukWJb8UNmJvu-150" value="uint32_t	time_release, time_after_release, period_after_release&amp;nbsp;" style="rounded=1;whiteSpace=wrap;html=1;" vertex="1" parent="1">
          <mxGeometry x="201" y="1830" width="350" height="30" as="geometry" />
        </mxCell>
        <mxCell id="z73j9xFbukWJb8UNmJvu-155" value="" style="edgeStyle=orthogonalEdgeStyle;rounded=0;orthogonalLoop=1;jettySize=auto;html=1;" edge="1" parent="1" source="z73j9xFbukWJb8UNmJvu-152" target="z73j9xFbukWJb8UNmJvu-154">
          <mxGeometry relative="1" as="geometry" />
        </mxCell>
        <mxCell id="z73j9xFbukWJb8UNmJvu-215" value="" style="edgeStyle=orthogonalEdgeStyle;rounded=0;orthogonalLoop=1;jettySize=auto;html=1;" edge="1" parent="1" source="z73j9xFbukWJb8UNmJvu-152">
          <mxGeometry relative="1" as="geometry">
            <mxPoint x="640" y="1918" as="targetPoint" />
          </mxGeometry>
        </mxCell>
        <mxCell id="z73j9xFbukWJb8UNmJvu-152" value="statusCommon == 0" style="rhombus;whiteSpace=wrap;html=1;rounded=1;" vertex="1" parent="1">
          <mxGeometry x="306" y="1890" width="140" height="55" as="geometry" />
        </mxCell>
        <mxCell id="z73j9xFbukWJb8UNmJvu-158" value="" style="edgeStyle=orthogonalEdgeStyle;rounded=0;orthogonalLoop=1;jettySize=auto;html=1;" edge="1" parent="1" source="z73j9xFbukWJb8UNmJvu-154" target="z73j9xFbukWJb8UNmJvu-157">
          <mxGeometry relative="1" as="geometry" />
        </mxCell>
        <mxCell id="z73j9xFbukWJb8UNmJvu-213" value="" style="edgeStyle=orthogonalEdgeStyle;rounded=0;orthogonalLoop=1;jettySize=auto;html=1;" edge="1" parent="1" source="z73j9xFbukWJb8UNmJvu-154">
          <mxGeometry relative="1" as="geometry">
            <mxPoint x="640" y="2010" as="targetPoint" />
          </mxGeometry>
        </mxCell>
        <mxCell id="z73j9xFbukWJb8UNmJvu-154" value="countPressButton != 0" style="rhombus;whiteSpace=wrap;html=1;rounded=1;" vertex="1" parent="1">
          <mxGeometry x="303" y="1980" width="146" height="60" as="geometry" />
        </mxCell>
        <mxCell id="z73j9xFbukWJb8UNmJvu-156" value="Yes" style="text;html=1;strokeColor=none;fillColor=none;align=center;verticalAlign=middle;whiteSpace=wrap;rounded=0;" vertex="1" parent="1">
          <mxGeometry x="376" y="1940" width="60" height="30" as="geometry" />
        </mxCell>
        <mxCell id="z73j9xFbukWJb8UNmJvu-161" value="" style="edgeStyle=orthogonalEdgeStyle;rounded=0;orthogonalLoop=1;jettySize=auto;html=1;" edge="1" parent="1" source="z73j9xFbukWJb8UNmJvu-157" target="z73j9xFbukWJb8UNmJvu-160">
          <mxGeometry relative="1" as="geometry" />
        </mxCell>
        <mxCell id="z73j9xFbukWJb8UNmJvu-157" value="time_after_release = GetMilSecTick();&lt;br&gt;period_after_release = CalculatorTime(time_release, time_after_release);" style="whiteSpace=wrap;html=1;rounded=1;" vertex="1" parent="1">
          <mxGeometry x="176" y="2070" width="400" height="60" as="geometry" />
        </mxCell>
        <mxCell id="z73j9xFbukWJb8UNmJvu-159" value="Yes" style="text;html=1;strokeColor=none;fillColor=none;align=center;verticalAlign=middle;whiteSpace=wrap;rounded=0;" vertex="1" parent="1">
          <mxGeometry x="376" y="2040" width="60" height="30" as="geometry" />
        </mxCell>
        <mxCell id="z73j9xFbukWJb8UNmJvu-168" value="" style="edgeStyle=orthogonalEdgeStyle;rounded=0;orthogonalLoop=1;jettySize=auto;html=1;" edge="1" parent="1" source="z73j9xFbukWJb8UNmJvu-160">
          <mxGeometry relative="1" as="geometry">
            <mxPoint x="376" y="2240" as="targetPoint" />
          </mxGeometry>
        </mxCell>
        <mxCell id="z73j9xFbukWJb8UNmJvu-211" value="" style="edgeStyle=orthogonalEdgeStyle;rounded=0;orthogonalLoop=1;jettySize=auto;html=1;" edge="1" parent="1" source="z73j9xFbukWJb8UNmJvu-160">
          <mxGeometry relative="1" as="geometry">
            <mxPoint x="640" y="2190" as="targetPoint" />
            <Array as="points">
              <mxPoint x="620" y="2190" />
              <mxPoint x="620" y="2190" />
            </Array>
          </mxGeometry>
        </mxCell>
        <mxCell id="z73j9xFbukWJb8UNmJvu-160" value="period_after_release &amp;gt; 400" style="rhombus;whiteSpace=wrap;html=1;rounded=1;" vertex="1" parent="1">
          <mxGeometry x="261" y="2170" width="230" height="40" as="geometry" />
        </mxCell>
        <mxCell id="z73j9xFbukWJb8UNmJvu-176" value="" style="edgeStyle=orthogonalEdgeStyle;rounded=0;orthogonalLoop=1;jettySize=auto;html=1;" edge="1" parent="1" source="z73j9xFbukWJb8UNmJvu-173" target="z73j9xFbukWJb8UNmJvu-175">
          <mxGeometry relative="1" as="geometry" />
        </mxCell>
        <mxCell id="z73j9xFbukWJb8UNmJvu-179" value="" style="edgeStyle=orthogonalEdgeStyle;rounded=0;orthogonalLoop=1;jettySize=auto;html=1;" edge="1" parent="1" source="z73j9xFbukWJb8UNmJvu-173" target="z73j9xFbukWJb8UNmJvu-178">
          <mxGeometry relative="1" as="geometry" />
        </mxCell>
        <mxCell id="z73j9xFbukWJb8UNmJvu-173" value="countPressButton == 1" style="rhombus;whiteSpace=wrap;html=1;" vertex="1" parent="1">
          <mxGeometry x="301" y="2240" width="150" height="50" as="geometry" />
        </mxCell>
        <mxCell id="z73j9xFbukWJb8UNmJvu-174" value="Yes" style="text;html=1;strokeColor=none;fillColor=none;align=center;verticalAlign=middle;whiteSpace=wrap;rounded=0;" vertex="1" parent="1">
          <mxGeometry x="376" y="2210" width="60" height="30" as="geometry" />
        </mxCell>
        <mxCell id="z73j9xFbukWJb8UNmJvu-190" value="" style="edgeStyle=orthogonalEdgeStyle;rounded=0;orthogonalLoop=1;jettySize=auto;html=1;" edge="1" parent="1" source="z73j9xFbukWJb8UNmJvu-175" target="z73j9xFbukWJb8UNmJvu-189">
          <mxGeometry relative="1" as="geometry" />
        </mxCell>
        <mxCell id="z73j9xFbukWJb8UNmJvu-175" value="Tắt LED" style="rounded=1;whiteSpace=wrap;html=1;" vertex="1" parent="1">
          <mxGeometry x="316" y="2320" width="120" height="30" as="geometry" />
        </mxCell>
        <mxCell id="z73j9xFbukWJb8UNmJvu-177" value="Yes" style="text;html=1;strokeColor=none;fillColor=none;align=center;verticalAlign=middle;whiteSpace=wrap;rounded=0;" vertex="1" parent="1">
          <mxGeometry x="370" y="2290" width="60" height="30" as="geometry" />
        </mxCell>
        <mxCell id="z73j9xFbukWJb8UNmJvu-181" value="" style="edgeStyle=orthogonalEdgeStyle;rounded=0;orthogonalLoop=1;jettySize=auto;html=1;" edge="1" parent="1" source="z73j9xFbukWJb8UNmJvu-178" target="z73j9xFbukWJb8UNmJvu-180">
          <mxGeometry relative="1" as="geometry" />
        </mxCell>
        <mxCell id="z73j9xFbukWJb8UNmJvu-184" value="" style="edgeStyle=orthogonalEdgeStyle;rounded=0;orthogonalLoop=1;jettySize=auto;html=1;" edge="1" parent="1" source="z73j9xFbukWJb8UNmJvu-178" target="z73j9xFbukWJb8UNmJvu-183">
          <mxGeometry relative="1" as="geometry" />
        </mxCell>
        <mxCell id="z73j9xFbukWJb8UNmJvu-178" value="countPressButton == 2" style="rhombus;whiteSpace=wrap;html=1;" vertex="1" parent="1">
          <mxGeometry x="101" y="2240" width="150" height="50" as="geometry" />
        </mxCell>
        <mxCell id="z73j9xFbukWJb8UNmJvu-204" value="" style="edgeStyle=orthogonalEdgeStyle;rounded=0;orthogonalLoop=1;jettySize=auto;html=1;" edge="1" parent="1" source="z73j9xFbukWJb8UNmJvu-180">
          <mxGeometry relative="1" as="geometry">
            <mxPoint x="176" y="2450" as="targetPoint" />
          </mxGeometry>
        </mxCell>
        <mxCell id="z73j9xFbukWJb8UNmJvu-180" value="Bật LED tương ứng" style="whiteSpace=wrap;html=1;" vertex="1" parent="1">
          <mxGeometry x="116" y="2320" width="120" height="30" as="geometry" />
        </mxCell>
        <mxCell id="z73j9xFbukWJb8UNmJvu-182" value="Yes" style="text;html=1;strokeColor=none;fillColor=none;align=center;verticalAlign=middle;whiteSpace=wrap;rounded=0;" vertex="1" parent="1">
          <mxGeometry x="176" y="2290" width="60" height="30" as="geometry" />
        </mxCell>
        <mxCell id="z73j9xFbukWJb8UNmJvu-186" value="" style="edgeStyle=orthogonalEdgeStyle;rounded=0;orthogonalLoop=1;jettySize=auto;html=1;" edge="1" parent="1" source="z73j9xFbukWJb8UNmJvu-183" target="z73j9xFbukWJb8UNmJvu-185">
          <mxGeometry relative="1" as="geometry" />
        </mxCell>
        <mxCell id="z73j9xFbukWJb8UNmJvu-206" value="" style="edgeStyle=orthogonalEdgeStyle;rounded=0;orthogonalLoop=1;jettySize=auto;html=1;" edge="1" parent="1" source="z73j9xFbukWJb8UNmJvu-183">
          <mxGeometry relative="1" as="geometry">
            <mxPoint x="-110" y="2270" as="targetPoint" />
            <Array as="points">
              <mxPoint x="-110" y="2265" />
              <mxPoint x="-110" y="2265" />
            </Array>
          </mxGeometry>
        </mxCell>
        <mxCell id="z73j9xFbukWJb8UNmJvu-183" value="countPressButton == 3" style="rhombus;whiteSpace=wrap;html=1;" vertex="1" parent="1">
          <mxGeometry x="-70" y="2237.5" width="140" height="55" as="geometry" />
        </mxCell>
        <mxCell id="z73j9xFbukWJb8UNmJvu-195" value="" style="edgeStyle=orthogonalEdgeStyle;rounded=0;orthogonalLoop=1;jettySize=auto;html=1;" edge="1" parent="1" source="z73j9xFbukWJb8UNmJvu-185">
          <mxGeometry relative="1" as="geometry">
            <mxPoint y="2450" as="targetPoint" />
          </mxGeometry>
        </mxCell>
        <mxCell id="z73j9xFbukWJb8UNmJvu-185" value="Tắt LED" style="rounded=1;whiteSpace=wrap;html=1;" vertex="1" parent="1">
          <mxGeometry x="-60" y="2320" width="120" height="30" as="geometry" />
        </mxCell>
        <mxCell id="z73j9xFbukWJb8UNmJvu-187" value="No" style="text;html=1;strokeColor=none;fillColor=none;align=center;verticalAlign=middle;whiteSpace=wrap;rounded=0;" vertex="1" parent="1">
          <mxGeometry x="251" y="2237.5" width="60" height="30" as="geometry" />
        </mxCell>
        <mxCell id="z73j9xFbukWJb8UNmJvu-188" value="No" style="text;html=1;strokeColor=none;fillColor=none;align=center;verticalAlign=middle;whiteSpace=wrap;rounded=0;" vertex="1" parent="1">
          <mxGeometry x="56" y="2240" width="60" height="30" as="geometry" />
        </mxCell>
        <mxCell id="z73j9xFbukWJb8UNmJvu-192" value="" style="edgeStyle=orthogonalEdgeStyle;rounded=0;orthogonalLoop=1;jettySize=auto;html=1;" edge="1" parent="1" source="z73j9xFbukWJb8UNmJvu-189">
          <mxGeometry relative="1" as="geometry">
            <mxPoint x="376" y="2535" as="targetPoint" />
          </mxGeometry>
        </mxCell>
        <mxCell id="z73j9xFbukWJb8UNmJvu-189" value="&lt;div&gt;countPressButton = 0;&lt;/div&gt;&lt;div&gt;				statusButton4 = 0;&lt;/div&gt;&lt;div&gt;&lt;span style=&quot;&quot;&gt;				&lt;/span&gt;statusButton2 = 0;&lt;/div&gt;" style="rounded=1;whiteSpace=wrap;html=1;" vertex="1" parent="1">
          <mxGeometry x="308" y="2420" width="136" height="50" as="geometry" />
        </mxCell>
        <mxCell id="z73j9xFbukWJb8UNmJvu-193" value="Finish" style="ellipse;whiteSpace=wrap;html=1;" vertex="1" parent="1">
          <mxGeometry x="316" y="2530" width="120" height="40" as="geometry" />
        </mxCell>
        <mxCell id="z73j9xFbukWJb8UNmJvu-198" value="" style="endArrow=classic;html=1;rounded=0;entryX=0.012;entryY=0.58;entryDx=0;entryDy=0;entryPerimeter=0;" edge="1" parent="1" target="z73j9xFbukWJb8UNmJvu-189">
          <mxGeometry width="50" height="50" relative="1" as="geometry">
            <mxPoint y="2450" as="sourcePoint" />
            <mxPoint x="370" y="2510" as="targetPoint" />
          </mxGeometry>
        </mxCell>
        <mxCell id="z73j9xFbukWJb8UNmJvu-207" value="No" style="text;html=1;strokeColor=none;fillColor=none;align=center;verticalAlign=middle;whiteSpace=wrap;rounded=0;" vertex="1" parent="1">
          <mxGeometry x="-120" y="2240" width="60" height="30" as="geometry" />
        </mxCell>
        <mxCell id="z73j9xFbukWJb8UNmJvu-208" value="" style="endArrow=classic;html=1;rounded=0;exitX=0.16;exitY=0.998;exitDx=0;exitDy=0;exitPerimeter=0;" edge="1" parent="1" source="z73j9xFbukWJb8UNmJvu-207">
          <mxGeometry width="50" height="50" relative="1" as="geometry">
            <mxPoint x="20" y="2360" as="sourcePoint" />
            <mxPoint x="-110" y="2450" as="targetPoint" />
          </mxGeometry>
        </mxCell>
        <mxCell id="z73j9xFbukWJb8UNmJvu-209" value="" style="endArrow=classic;html=1;rounded=0;" edge="1" parent="1">
          <mxGeometry width="50" height="50" relative="1" as="geometry">
            <mxPoint x="-110" y="2450" as="sourcePoint" />
            <mxPoint y="2450" as="targetPoint" />
          </mxGeometry>
        </mxCell>
        <mxCell id="z73j9xFbukWJb8UNmJvu-216" value="" style="endArrow=classic;html=1;rounded=0;" edge="1" parent="1">
          <mxGeometry width="50" height="50" relative="1" as="geometry">
            <mxPoint x="640" y="1920" as="sourcePoint" />
            <mxPoint x="640" y="2550" as="targetPoint" />
          </mxGeometry>
        </mxCell>
        <mxCell id="z73j9xFbukWJb8UNmJvu-218" value="" style="endArrow=classic;html=1;rounded=0;" edge="1" parent="1">
          <mxGeometry width="50" height="50" relative="1" as="geometry">
            <mxPoint x="640" y="2550" as="sourcePoint" />
            <mxPoint x="440" y="2550" as="targetPoint" />
          </mxGeometry>
        </mxCell>
        <mxCell id="z73j9xFbukWJb8UNmJvu-219" value="No" style="text;html=1;strokeColor=none;fillColor=none;align=center;verticalAlign=middle;whiteSpace=wrap;rounded=0;" vertex="1" parent="1">
          <mxGeometry x="500" y="1880" width="60" height="30" as="geometry" />
        </mxCell>
        <mxCell id="z73j9xFbukWJb8UNmJvu-220" value="No" style="text;html=1;strokeColor=none;fillColor=none;align=center;verticalAlign=middle;whiteSpace=wrap;rounded=0;" vertex="1" parent="1">
          <mxGeometry x="510" y="1980" width="60" height="30" as="geometry" />
        </mxCell>
        <mxCell id="z73j9xFbukWJb8UNmJvu-221" value="Text" style="text;html=1;strokeColor=none;fillColor=none;align=center;verticalAlign=middle;whiteSpace=wrap;rounded=0;" vertex="1" parent="1">
          <mxGeometry x="530" y="2150" width="60" height="30" as="geometry" />
        </mxCell>
        <mxCell id="z73j9xFbukWJb8UNmJvu-222" value="&lt;b&gt;&lt;font style=&quot;font-size: 16px;&quot;&gt;Control LED&lt;/font&gt;&lt;/b&gt;" style="text;html=1;strokeColor=none;fillColor=none;align=center;verticalAlign=middle;whiteSpace=wrap;rounded=0;" vertex="1" parent="1">
          <mxGeometry x="280" y="2640" width="168" height="25" as="geometry" />
        </mxCell>
      </root>
    </mxGraphModel>
  </diagram>
  <diagram id="Ad-n-OswfSaCgdmGEvcV" name="Page-3">
    <mxGraphModel dx="864" dy="516" grid="1" gridSize="10" guides="1" tooltips="1" connect="1" arrows="1" fold="1" page="1" pageScale="1" pageWidth="850" pageHeight="1100" math="0" shadow="0">
      <root>
        <mxCell id="0" />
        <mxCell id="1" parent="0" />
      </root>
    </mxGraphModel>
  </diagram>
</mxfile>
